<svg xmlns="http://www.w3.org/2000/svg" xmlns:xlink="http://www.w3.org/1999/xlink" xmlns:lucid="lucid" width="1065" height="128"><g transform="translate(-224 -73)" lucid:page-tab-id="0_0"><path d="M200 226c0-3.3 2.7-6 6-6h198c3.3 0 6 2.7 6 6v83.93c0 3.32-2.7 6-6 6H206c-3.3 0-6-2.68-6-6z" stroke="#000" stroke-opacity="0" stroke-width="3" fill="#fff" fill-opacity="0"/><use xlink:href="#a" transform="matrix(1,0,0,1,205,225) translate(0.9259259259259238 48.20833333333333)"/><use xlink:href="#b" transform="matrix(1,0,0,1,205,225) translate(71.88888888888889 48.20833333333333)"/><use xlink:href="#c" transform="matrix(1,0,0,1,205,225) translate(148.85185185185185 48.20833333333333)"/><path d="M440.83 226c0-3.3 2.7-6 6-6H594c3.3 0 6 2.7 6 6v83.93c0 3.32-2.7 6-6 6H446.83c-3.3 0-6-2.68-6-6z" stroke="#000" stroke-opacity="0" stroke-width="3" fill="#fff" fill-opacity="0"/><use xlink:href="#d" transform="matrix(1,0,0,1,445.83333333333326,225) translate(1.8518518518518619 48.20833333333333)"/><path d="M1080 226c0-3.3 2.7-6 6-6h228c3.3 0 6 2.7 6 6v83.93c0 3.32-2.7 6-6 6h-228c-3.3 0-6-2.68-6-6z" stroke="#000" stroke-opacity="0" stroke-width="3" fill="#fff" fill-opacity="0"/><use xlink:href="#e" transform="matrix(1,0,0,1,1085,225) translate(60.22222222222222 48.20833333333333)"/><path d="M240 123.6h320v40H240z" fill="#fff" fill-opacity="0"/><use xlink:href="#f" transform="matrix(1,0,0,1,245,128.6) translate(0 20.622222222222224)"/><path d="M618 123.6h340v43.6H618z" fill="#fff" fill-opacity="0"/><use xlink:href="#g" transform="matrix(1,0,0,1,623,128.6) translate(0 20.62222222222222)"/><path d="M1016 123.6h240v37.33h-240z" fill="#fff" fill-opacity="0"/><g><use xlink:href="#h" transform="matrix(1,0,0,1,1021,128.6) translate(0 20.622222222222224)"/></g><defs><path fill="#5e5e5e" d="M182-130c37 4 62 22 62 59C244 23 116-4 24 0v-248c84 5 203-23 205 63 0 31-19 50-47 55zM76-148c40-3 101 13 101-30 0-44-60-28-101-31v61zm0 110c48-3 116 14 116-37 0-48-69-32-116-35v72" id="i"/><path fill="#5e5e5e" d="M24 0v-248h52V0H24" id="j"/><path fill="#5e5e5e" d="M24-248c120-7 223 5 221 122C244-46 201 0 124 0H24v-248zM76-40c74 7 117-18 117-86 0-67-45-88-117-82v168" id="k"/><path fill="#5e5e5e" d="M169-182c-1-43-94-46-97-3 18 66 151 10 154 114 3 95-165 93-204 36-6-8-10-19-12-30l50-8c3 46 112 56 116 5-17-69-150-10-154-114-4-87 153-88 188-35 5 8 8 18 10 28" id="l"/><g id="a"><use transform="matrix(0.07407407407407407,0,0,0.07407407407407407,0,0)" xlink:href="#i"/><use transform="matrix(0.07407407407407407,0,0,0.07407407407407407,19.185185185185183,0)" xlink:href="#j"/><use transform="matrix(0.07407407407407407,0,0,0.07407407407407407,26.592592592592588,0)" xlink:href="#k"/><use transform="matrix(0.07407407407407407,0,0,0.07407407407407407,45.77777777777778,0)" xlink:href="#l"/></g><path fill="#5e5e5e" d="M135-194c87-1 58 113 63 194h-50c-7-57 23-157-34-157-59 0-34 97-39 157H25l-1-190h47c2 12-1 28 3 38 12-26 28-41 61-42" id="m"/><path fill="#5e5e5e" d="M133-34C117-15 103 5 69 4 32 3 11-16 11-54c-1-60 55-63 116-61 1-26-3-47-28-47-18 1-26 9-28 27l-52-2c7-38 36-58 82-57s74 22 75 68l1 82c-1 14 12 18 25 15v27c-30 8-71 5-69-32zm-48 3c29 0 43-24 42-57-32 0-66-3-65 30 0 17 8 27 23 27" id="n"/><path fill="#5e5e5e" d="M220-157c-53 9-28 100-34 157h-49v-107c1-27-5-49-29-50C55-147 81-57 75 0H25l-1-190h47c2 12-1 28 3 38 10-53 101-56 108 0 13-22 24-43 59-42 82 1 51 116 57 194h-49v-107c-1-25-5-48-29-50" id="o"/><path fill="#5e5e5e" d="M185-48c-13 30-37 53-82 52C43 2 14-33 14-96s30-98 90-98c62 0 83 45 84 108H66c0 31 8 55 39 56 18 0 30-7 34-22zm-45-69c5-46-57-63-70-21-2 6-4 13-4 21h74" id="p"/><g id="b"><use transform="matrix(0.07407407407407407,0,0,0.07407407407407407,0,0)" xlink:href="#m"/><use transform="matrix(0.07407407407407407,0,0,0.07407407407407407,16.22222222222222,0)" xlink:href="#n"/><use transform="matrix(0.07407407407407407,0,0,0.07407407407407407,31.037037037037035,0)" xlink:href="#o"/><use transform="matrix(0.07407407407407407,0,0,0.07407407407407407,54.740740740740726,0)" xlink:href="#p"/></g><path fill="#5e5e5e" d="M135-194c53 0 70 44 70 98 0 56-19 98-73 100-31 1-45-17-59-34 3 33 2 69 2 105H25l-1-265h48c2 10 0 23 3 31 11-24 29-35 60-35zM114-30c33 0 39-31 40-66 0-38-9-64-40-64-56 0-55 130 0 130" id="q"/><path fill="#5e5e5e" d="M135-150c-39-12-60 13-60 57V0H25l-1-190h47c2 13-1 29 3 40 6-28 27-53 61-41v41" id="r"/><path fill="#5e5e5e" d="M115-3C79 11 28 4 28-45v-112H4v-33h27l15-45h31v45h36v33H77v99c-1 23 16 31 38 25v30" id="s"/><g id="c"><use transform="matrix(0.07407407407407407,0,0,0.07407407407407407,0,0)" xlink:href="#q"/><use transform="matrix(0.07407407407407407,0,0,0.07407407407407407,16.22222222222222,0)" xlink:href="#n"/><use transform="matrix(0.07407407407407407,0,0,0.07407407407407407,31.037037037037035,0)" xlink:href="#r"/><use transform="matrix(0.07407407407407407,0,0,0.07407407407407407,41.407407407407405,0)" xlink:href="#s"/></g><path fill="#5e5e5e" d="M137-138c1-29-70-34-71-4 15 46 118 7 119 86 1 83-164 76-172 9l43-7c4 19 20 25 44 25 33 8 57-30 24-41C81-84 22-81 20-136c-2-80 154-74 161-7" id="t"/><path fill="#5e5e5e" d="M190-63c-7 42-38 67-86 67-59 0-84-38-90-98-12-110 154-137 174-36l-49 2c-2-19-15-32-35-32-30 0-35 28-38 64-6 74 65 87 74 30" id="u"/><path fill="#5e5e5e" d="M25-224v-37h50v37H25zM25 0v-190h50V0H25" id="v"/><path fill="#5e5e5e" d="M110-194c64 0 96 36 96 99 0 64-35 99-97 99-61 0-95-36-95-99 0-62 34-99 96-99zm-1 164c35 0 45-28 45-65 0-40-10-65-43-65-34 0-45 26-45 65 0 36 10 65 43 65" id="w"/><g id="d"><use transform="matrix(0.07407407407407407,0,0,0.07407407407407407,0,0)" xlink:href="#k"/><use transform="matrix(0.07407407407407407,0,0,0.07407407407407407,19.185185185185183,0)" xlink:href="#p"/><use transform="matrix(0.07407407407407407,0,0,0.07407407407407407,34,0)" xlink:href="#t"/><use transform="matrix(0.07407407407407407,0,0,0.07407407407407407,48.81481481481481,0)" xlink:href="#u"/><use transform="matrix(0.07407407407407407,0,0,0.07407407407407407,63.62962962962962,0)" xlink:href="#r"/><use transform="matrix(0.07407407407407407,0,0,0.07407407407407407,73.99999999999999,0)" xlink:href="#v"/><use transform="matrix(0.07407407407407407,0,0,0.07407407407407407,81.40740740740739,0)" xlink:href="#q"/><use transform="matrix(0.07407407407407407,0,0,0.07407407407407407,97.62962962962962,0)" xlink:href="#s"/><use transform="matrix(0.07407407407407407,0,0,0.07407407407407407,106.44444444444443,0)" xlink:href="#v"/><use transform="matrix(0.07407407407407407,0,0,0.07407407407407407,113.85185185185183,0)" xlink:href="#w"/><use transform="matrix(0.07407407407407407,0,0,0.07407407407407407,130.07407407407405,0)" xlink:href="#m"/></g><path fill="#5e5e5e" d="M24 0v-248h195v40H76v63h132v40H76v65h150V0H24" id="x"/><path fill="#5e5e5e" d="M144 0l-44-69L55 0H2l70-98-66-92h53l41 62 40-62h54l-67 91 71 99h-54" id="y"/><path fill="#5e5e5e" d="M25 0v-261h50V0H25" id="z"/><g id="e"><use transform="matrix(0.07407407407407407,0,0,0.07407407407407407,0,0)" xlink:href="#x"/><use transform="matrix(0.07407407407407407,0,0,0.07407407407407407,17.77777777777778,0)" xlink:href="#y"/><use transform="matrix(0.07407407407407407,0,0,0.07407407407407407,32.592592592592595,0)" xlink:href="#n"/><use transform="matrix(0.07407407407407407,0,0,0.07407407407407407,47.407407407407405,0)" xlink:href="#o"/><use transform="matrix(0.07407407407407407,0,0,0.07407407407407407,71.11111111111111,0)" xlink:href="#q"/><use transform="matrix(0.07407407407407407,0,0,0.07407407407407407,87.33333333333334,0)" xlink:href="#z"/><use transform="matrix(0.07407407407407407,0,0,0.07407407407407407,94.74074074074075,0)" xlink:href="#p"/></g><path fill="#c92d39" d="M165-48c-4 18 1 34 23 27l-3 20c-29 8-62 0-52-35h-2C116-14 99 4 63 4 30 4 8-16 8-49c0-68 71-67 138-67 10-26 0-56-31-54-26 1-42 9-47 31l-32-5c8-67 160-71 144 15-5 28-9 54-15 81zM42-50c3 52 80 24 89-6 7-12 7-24 11-38-47 1-103-4-100 44" id="A"/><path fill="#c92d39" d="M67-158c22-48 132-52 116 29L158 0h-32l25-140c3-38-53-32-70-12C52-117 51-52 38 0H6l36-190h30" id="B"/><path fill="#c92d39" d="M51-54c-9 22 5 41 31 30L79-1C43 14 10-4 19-52l22-115H19l5-23h22l19-43h21l-9 43h35l-4 23H73" id="C"/><path fill="#c92d39" d="M18-82l6-28h88l-6 28H18" id="D"/><path fill="#c92d39" d="M151-220L108 0H75l42-220H32l6-28h203l-5 28h-85" id="E"/><path fill="#c92d39" d="M9 0l6-27h63l36-188-63 39 6-31 66-41h29L110-27h60l-5 27H9" id="F"/><path fill="#c92d39" d="M188 0h-37l-8-164L71 0H34L18-190h31l8 164 75-164h34l8 164 74-164h31" id="G"/><path d="M-5 72V49h209v23H-5" id="H"/><path fill="#19967d" d="M133-34C117-15 103 5 69 4 32 3 11-16 11-54c-1-60 55-63 116-61 1-26-3-47-28-47-18 1-26 9-28 27l-52-2c7-38 36-58 82-57s74 22 75 68l1 82c-1 14 12 18 25 15v27c-30 8-71 5-69-32zm-48 3c29 0 43-24 42-57-32 0-66-3-65 30 0 17 8 27 23 27" id="I"/><path fill="#19967d" d="M190-63c-7 42-38 67-86 67-59 0-84-38-90-98-12-110 154-137 174-36l-49 2c-2-19-15-32-35-32-30 0-35 28-38 64-6 74 65 87 74 30" id="J"/><path fill="#19967d" d="M84 4C32 4 15-41 15-95c0-55 18-99 73-99 29 0 47 12 58 34l2-30h48l-1 265h-49V-32C136-9 114 4 84 4zm21-34c32 0 41-29 41-66 0-36-9-64-40-64-33 0-39 30-40 65 0 43 13 65 39 65" id="K"/><path fill="#19967d" d="M16-82v-28h88v28H16" id="L"/><path fill="#19967d" d="M248-111c6-24 9-61-24-58-72 9-57 108-77 169h-31l26-142c3-37-50-30-64-10C52-115 50-51 37 0H6l36-190h30c-1 10-6 24-4 32 13-43 101-52 105 5 13-22 29-41 61-41 90 0 28 129 23 194h-31" id="M"/><path fill="#19967d" d="M111-194c62-3 86 47 72 106H45c-7 38 6 69 45 68 27-1 43-14 53-32l24 11C152-15 129 4 87 4 38 3 12-23 12-71c0-70 32-119 99-123zm44 81c14-66-71-72-95-28-4 8-8 17-11 28h106" id="N"/><path fill="#19967d" d="M67-162c32-53 139-36 121 50C175-51 163 2 97 4 68 4 52-11 42-31 38 6 28 39 22 75H-9l50-265h29c-1 10 0 20-3 28zm89 36c0-26-10-43-35-43-54 0-67 50-69 103-1 29 14 45 42 46 53 0 62-58 62-106" id="O"/><path fill="#19967d" d="M66-151c12-25 30-51 66-40l-6 26C45-176 58-65 38 0H6l36-190h30" id="P"/><path fill="#19967d" d="M165-48c-4 18 1 34 23 27l-3 20c-29 8-62 0-52-35h-2C116-14 99 4 63 4 30 4 8-16 8-49c0-68 71-67 138-67 10-26 0-56-31-54-26 1-42 9-47 31l-32-5c8-67 160-71 144 15-5 28-9 54-15 81zM42-50c3 52 80 24 89-6 7-12 7-24 11-38-47 1-103-4-100 44" id="Q"/><path fill="#19967d" d="M103-194c29 0 47 14 56 36 2-11 5-23 8-32h30L160-5C157 61 82 97 21 62 9 55 4 45 1 30l28-7c7 42 83 31 92-3 4-16 9-38 13-55-13 20-29 36-62 36-40 0-60-25-60-64 0-71 23-131 91-131zm4 24c-53 0-58 54-61 104-2 27 10 44 36 44 49 0 65-50 67-102 1-29-15-46-42-46" id="R"/><g id="f"><use transform="matrix(0.07160493827160494,0,0,0.07160493827160494,0,0)" xlink:href="#A"/><use transform="matrix(0.07160493827160494,0,0,0.07160493827160494,14.320987654320987,0)" xlink:href="#B"/><use transform="matrix(0.07160493827160494,0,0,0.07160493827160494,28.641975308641975,0)" xlink:href="#A"/><use transform="matrix(0.07160493827160494,0,0,0.07160493827160494,42.96296296296296,0)" xlink:href="#C"/><use transform="matrix(0.07160493827160494,0,0,0.07160493827160494,50.123456790123456,0)" xlink:href="#D"/><use transform="matrix(0.07160493827160494,0,0,0.07160493827160494,58.644444444444446,0)" xlink:href="#E"/><use transform="matrix(0.07160493827160494,0,0,0.07160493827160494,74.32592592592593,0)" xlink:href="#F"/><use transform="matrix(0.07160493827160494,0,0,0.07160493827160494,88.64691358024692,0)" xlink:href="#G"/><path fill="#c92d39" d="M-1.3 1.8H108.5v1.88H-1.3z"/><use transform="matrix(0.07160493827160494,0,0,0.07160493827160494,107.19259259259262,0)" xlink:href="#H"/><use transform="matrix(0.07160493827160494,0,0,0.07160493827160494,121.51358024691358,0)" xlink:href="#I"/><use transform="matrix(0.07160493827160494,0,0,0.07160493827160494,135.83456790123458,0)" xlink:href="#J"/><use transform="matrix(0.07160493827160494,0,0,0.07160493827160494,150.15555555555557,0)" xlink:href="#K"/><use transform="matrix(0.07160493827160494,0,0,0.07160493827160494,165.83703703703705,0)" xlink:href="#L"/><use transform="matrix(0.07160493827160494,0,0,0.07160493827160494,174.35802469135803,0)" xlink:href="#M"/><use transform="matrix(0.07160493827160494,0,0,0.07160493827160494,195.7679012345679,0)" xlink:href="#N"/><use transform="matrix(0.07160493827160494,0,0,0.07160493827160494,210.08888888888887,0)" xlink:href="#M"/><use transform="matrix(0.07160493827160494,0,0,0.07160493827160494,231.49876543209876,0)" xlink:href="#O"/><use transform="matrix(0.07160493827160494,0,0,0.07160493827160494,245.81975308641975,0)" xlink:href="#P"/><use transform="matrix(0.07160493827160494,0,0,0.07160493827160494,254.34074074074073,0)" xlink:href="#Q"/><use transform="matrix(0.07160493827160494,0,0,0.07160493827160494,268.6617283950617,0)" xlink:href="#R"/><use transform="matrix(0.07160493827160494,0,0,0.07160493827160494,282.9827160493827,0)" xlink:href="#N"/><path fill="#19967d" d="M173.07 1.8H298.6v1.88H173.06z"/></g><path fill="#c92d39" d="M76-167L44 0H12l33-167H18l4-23h27c3-47 25-81 82-69l-4 24c-35-8-44 15-46 45h37l-5 23H76" id="S"/><path fill="#c92d39" d="M67 3c-93-2-31-127-26-193h32L48-50c-3 39 53 32 70 12 30-34 30-101 43-152h32L157 0h-30c1-10 6-24 4-33-14 20-29 37-64 36" id="T"/><path fill="#c92d39" d="M44-68c0 29 11 47 38 47 30 0 42-19 51-41l28 9C148-21 126 4 82 4 31 4 10-29 12-85c3-77 74-140 146-93 12 8 15 23 18 40l-31 5c-1-22-13-36-36-36-52 0-65 49-65 101" id="U"/><path fill="#c92d39" d="M68-162c25-46 127-43 121 31C183-60 169 1 98 4 69 5 53-11 43-31L36 0H5l52-261h31zm88 36c2-27-9-43-34-43-55 0-70 51-70 103 0 29 15 45 43 46 52 0 58-58 61-106" id="V"/><path fill="#c92d39" d="M30-147c31-64 166-65 159 27C183-49 158 1 86 4 9 8 1-88 30-147zM88-20c53 0 68-48 68-100 0-31-11-51-44-50-52 1-68 46-68 97 0 32 13 53 44 53" id="W"/><path fill="#c92d39" d="M6 0l50-261h32L37 0H6" id="X"/><path fill="#c92d39" d="M133-28C103 26-5 8 13-77c13-62 24-115 90-117 29-1 46 15 56 35l19-102h32L160 0h-30zM45-64c-2 27 10 43 35 43 54-1 69-50 69-103 0-29-15-46-42-46-53-1-58 58-62 106" id="Y"/><path fill="#ef8d22" d="M115-3C79 11 28 4 28-45v-112H4v-33h27l15-45h31v45h36v33H77v99c-1 23 16 31 38 25v30" id="Z"/><path fill="#ef8d22" d="M133-34C117-15 103 5 69 4 32 3 11-16 11-54c-1-60 55-63 116-61 1-26-3-47-28-47-18 1-26 9-28 27l-52-2c7-38 36-58 82-57s74 22 75 68l1 82c-1 14 12 18 25 15v27c-30 8-71 5-69-32zm-48 3c29 0 43-24 42-57-32 0-66-3-65 30 0 17 8 27 23 27" id="aa"/><path fill="#ef8d22" d="M137-138c1-29-70-34-71-4 15 46 118 7 119 86 1 83-164 76-172 9l43-7c4 19 20 25 44 25 33 8 57-30 24-41C81-84 22-81 20-136c-2-80 154-74 161-7" id="ab"/><path fill="#ef8d22" d="M147 0L96-86 75-71V0H25v-261h50v150l67-79h53l-66 74L201 0h-54" id="ac"/><path fill="#ef8d22" d="M16-82v-28h88v28H16" id="ad"/><path fill="#ef8d22" d="M6 0l50-261h32L37 0H6" id="ae"/><path fill="#ef8d22" d="M67 3c-93-2-31-127-26-193h32L48-50c-3 39 53 32 70 12 30-34 30-101 43-152h32L157 0h-30c1-10 6-24 4-33-14 20-29 37-64 36" id="af"/><path fill="#ef8d22" d="M248-111c6-24 9-61-24-58-72 9-57 108-77 169h-31l26-142c3-37-50-30-64-10C52-115 50-51 37 0H6l36-190h30c-1 10-6 24-4 32 13-43 101-52 105 5 13-22 29-41 61-41 90 0 28 129 23 194h-31" id="ag"/><path fill="#0c7cba" d="M135-150c-39-12-60 13-60 57V0H25l-1-190h47c2 13-1 29 3 40 6-28 27-53 61-41v41" id="ah"/><path fill="#0c7cba" d="M85 4C-2 5 27-109 22-190h50c7 57-23 150 33 157 60-5 35-97 40-157h50l1 190h-47c-2-12 1-28-3-38-12 25-28 42-61 42" id="ai"/><path fill="#0c7cba" d="M135-194c87-1 58 113 63 194h-50c-7-57 23-157-34-157-59 0-34 97-39 157H25l-1-190h47c2 12-1 28 3 38 12-26 28-41 61-42" id="aj"/><path fill="#0c7cba" d="M123-107v75H97v-75H23v-26h74v-75h26v75h75v26h-75" id="ak"/><g id="g"><use transform="matrix(0.07160493827160493,0,0,0.07160493827160493,0,0)" xlink:href="#S"/><use transform="matrix(0.07160493827160493,0,0,0.07160493827160493,7.160493827160493,0)" xlink:href="#T"/><use transform="matrix(0.07160493827160493,0,0,0.07160493827160493,21.481481481481477,0)" xlink:href="#B"/><use transform="matrix(0.07160493827160493,0,0,0.07160493827160493,35.80246913580246,0)" xlink:href="#U"/><use transform="matrix(0.07160493827160493,0,0,0.07160493827160493,48.69135802469135,0)" xlink:href="#D"/><use transform="matrix(0.07160493827160493,0,0,0.07160493827160493,57.21234567901233,0)" xlink:href="#V"/><use transform="matrix(0.07160493827160493,0,0,0.07160493827160493,71.53333333333332,0)" xlink:href="#W"/><use transform="matrix(0.07160493827160493,0,0,0.07160493827160493,85.8543209876543,0)" xlink:href="#X"/><use transform="matrix(0.07160493827160493,0,0,0.07160493827160493,91.51111111111109,0)" xlink:href="#Y"/><path fill="#c92d39" d="M-1.3 1.8h108.42v1.88H-1.28z"/><use transform="matrix(0.07160493827160493,0,0,0.07160493827160493,105.83209876543208,0)" xlink:href="#H"/><use transform="matrix(0.07160493827160493,0,0,0.07160493827160493,120.15308641975307,0)" xlink:href="#Z"/><use transform="matrix(0.07160493827160493,0,0,0.07160493827160493,128.67407407407404,0)" xlink:href="#aa"/><use transform="matrix(0.07160493827160493,0,0,0.07160493827160493,142.99506172839503,0)" xlink:href="#ab"/><use transform="matrix(0.07160493827160493,0,0,0.07160493827160493,157.31604938271602,0)" xlink:href="#ac"/><use transform="matrix(0.07160493827160493,0,0,0.07160493827160493,171.637037037037,0)" xlink:href="#ad"/><use transform="matrix(0.07160493827160493,0,0,0.07160493827160493,180.15802469135798,0)" xlink:href="#ae"/><use transform="matrix(0.07160493827160493,0,0,0.07160493827160493,185.81481481481478,0)" xlink:href="#af"/><use transform="matrix(0.07160493827160493,0,0,0.07160493827160493,200.13580246913577,0)" xlink:href="#ag"/><path fill="#ef8d22" d="M178.87 1.8h43.97v1.88h-43.97z"/><use transform="matrix(0.07160493827160493,0,0,0.07160493827160493,221.54567901234563,0)" xlink:href="#H"/><use transform="matrix(0.07160493827160493,0,0,0.07160493827160493,235.86666666666662,0)" xlink:href="#ah"/><use transform="matrix(0.07160493827160493,0,0,0.07160493827160493,245.89135802469133,0)" xlink:href="#ai"/><use transform="matrix(0.07160493827160493,0,0,0.07160493827160493,261.5728395061728,0)" xlink:href="#aj"/><use transform="matrix(0.07160493827160493,0,0,0.07160493827160493,277.25432098765424,0)" xlink:href="#ak"/><path fill="#0c7cba" d="M275.97 1.8h17.6v1.88h-17.6z"/></g><path fill="#c92d39" d="M50-231l6-30h32l-6 30H50zM6 0l37-190h31L37 0H6" id="al"/><path fill="#19967d" d="M9 0l6-27h63l36-188-63 39 6-31 66-41h29L110-27h60l-5 27H9" id="am"/><path fill="#19967d" d="M123-251c66 0 92 69 53 113C138-94 73-75 39-27h128l-5 27H-2c17-92 123-93 159-163 14-28-1-64-36-62-29 2-46 17-54 41l-30-6c13-36 37-61 86-61" id="an"/><path fill="#834187" d="M88-194c31-1 46 15 58 34l-1-101h50l1 261h-48c-2-10 0-23-3-31C134-8 116 4 84 4 32 4 16-41 15-95c0-56 19-97 73-99zm17 164c33 0 40-30 41-66 1-37-9-64-41-64s-38 30-39 65c0 43 13 65 39 65" id="ao"/><path fill="#834187" d="M25-224v-37h50v37H25zM25 0v-190h50V0H25" id="ap"/><path fill="#834187" d="M135-150c-39-12-60 13-60 57V0H25l-1-190h47c2 13-1 29 3 40 6-28 27-53 61-41v41" id="aq"/><path fill="#834187" d="M16-82v-28h88v28H16" id="ar"/><path fill="#834187" d="M165-48c-4 18 1 34 23 27l-3 20c-29 8-62 0-52-35h-2C116-14 99 4 63 4 30 4 8-16 8-49c0-68 71-67 138-67 10-26 0-56-31-54-26 1-42 9-47 31l-32-5c8-67 160-71 144 15-5 28-9 54-15 81zM42-50c3 52 80 24 89-6 7-12 7-24 11-38-47 1-103-4-100 44" id="as"/><path fill="#834187" d="M67-162c32-53 139-36 121 50C175-51 163 2 97 4 68 4 52-11 42-31 38 6 28 39 22 75H-9l50-265h29c-1 10 0 20-3 28zm89 36c0-26-10-43-35-43-54 0-67 50-69 103-1 29 14 45 42 46 53 0 62-58 62-106" id="at"/><g id="h"><use transform="matrix(0.07160493827160494,0,0,0.07160493827160494,0,0)" xlink:href="#Y"/><use transform="matrix(0.07160493827160494,0,0,0.07160493827160494,14.320987654320987,0)" xlink:href="#G"/><use transform="matrix(0.07160493827160494,0,0,0.07160493827160494,32.86666666666667,0)" xlink:href="#al"/><path fill="#c92d39" d="M-1.3 1.8h41.1v1.88H-1.3z"/><use transform="matrix(0.07160493827160494,0,0,0.07160493827160494,38.523456790123454,0)" xlink:href="#H"/><use transform="matrix(0.07160493827160494,0,0,0.07160493827160494,52.84444444444445,0)" xlink:href="#I"/><use transform="matrix(0.07160493827160494,0,0,0.07160493827160494,67.16543209876544,0)" xlink:href="#J"/><use transform="matrix(0.07160493827160494,0,0,0.07160493827160494,81.48641975308642,0)" xlink:href="#K"/><use transform="matrix(0.07160493827160494,0,0,0.07160493827160494,97.1679012345679,0)" xlink:href="#L"/><use transform="matrix(0.07160493827160494,0,0,0.07160493827160494,105.6888888888889,0)" xlink:href="#am"/><use transform="matrix(0.07160493827160494,0,0,0.07160493827160494,120.00987654320988,0)" xlink:href="#an"/><use transform="matrix(0.07160493827160494,0,0,0.07160493827160494,134.33086419753087,0)" xlink:href="#an"/><path fill="#19967d" d="M104.4 1.8h45.54v1.88H104.4z"/><use transform="matrix(0.07160493827160494,0,0,0.07160493827160494,148.65185185185186,0)" xlink:href="#H"/><use transform="matrix(0.07160493827160494,0,0,0.07160493827160494,162.97283950617285,0)" xlink:href="#ao"/><use transform="matrix(0.07160493827160494,0,0,0.07160493827160494,178.65432098765433,0)" xlink:href="#ap"/><use transform="matrix(0.07160493827160494,0,0,0.07160493827160494,185.81481481481484,0)" xlink:href="#aq"/><use transform="matrix(0.07160493827160494,0,0,0.07160493827160494,195.83950617283952,0)" xlink:href="#ar"/><use transform="matrix(0.07160493827160494,0,0,0.07160493827160494,204.3604938271605,0)" xlink:href="#as"/><use transform="matrix(0.07160493827160494,0,0,0.07160493827160494,218.68148148148148,0)" xlink:href="#at"/><path fill="#834187" d="M203.07 1.8h31.22v1.88h-31.23z"/></g></defs></g></svg>